<svg width="204" height="204" viewBox="0 0 204 204" fill="none" xmlns="http://www.w3.org/2000/svg">
<g clip-path="url(#clip0_3_2)">
<circle cx="102" cy="102" r="102" fill="white"/>
<ellipse cx="102" cy="102" rx="86" ry="87" fill="black"/>
<path d="M73.03 112.02C73.73 115.707 75.8767 117.55 79.47 117.55C81.9433 117.55 83.6933 116.453 84.72 114.26C85.7467 112.067 86.26 108.497 86.26 103.55C85.2333 104.997 83.8333 106.117 82.06 106.91C80.2867 107.703 78.3033 108.1 76.11 108.1C73.1233 108.1 70.4633 107.493 68.13 106.28C65.7967 105.02 63.9533 103.177 62.6 100.75C61.2933 98.2767 60.64 95.29 60.64 91.79C60.64 88.3367 61.34 85.3267 62.74 82.76C64.1867 80.1933 66.2167 78.21 68.83 76.81C71.49 75.41 74.6167 74.71 78.21 74.71C85.1167 74.71 89.9467 76.8567 92.7 81.15C95.4533 85.4433 96.83 91.7667 96.83 100.12C96.83 106.187 96.27 111.203 95.15 115.17C94.0767 119.09 92.2333 122.077 89.62 124.13C87.0533 126.183 83.53 127.21 79.05 127.21C75.5033 127.21 72.47 126.51 69.95 125.11C67.4767 123.71 65.5633 121.867 64.21 119.58C62.9033 117.293 62.1567 114.773 61.97 112.02H73.03ZM78.84 98.65C80.8 98.65 82.3633 98.0667 83.53 96.9C84.6967 95.6867 85.28 94.0533 85.28 92C85.28 89.76 84.6733 88.0333 83.46 86.82C82.2467 85.6067 80.6133 85 78.56 85C76.5067 85 74.8733 85.63 73.66 86.89C72.4933 88.1033 71.91 89.7833 71.91 91.93C71.91 93.9367 72.4933 95.57 73.66 96.83C74.8733 98.0433 76.6 98.65 78.84 98.65ZM103.216 100.75C103.216 92.7233 104.756 86.4 107.836 81.78C110.963 77.16 115.98 74.85 122.886 74.85C129.793 74.85 134.786 77.16 137.866 81.78C140.993 86.4 142.556 92.7233 142.556 100.75C142.556 108.87 140.993 115.24 137.866 119.86C134.786 124.48 129.793 126.79 122.886 126.79C115.98 126.79 110.963 124.48 107.836 119.86C104.756 115.24 103.216 108.87 103.216 100.75ZM130.796 100.75C130.796 96.0367 130.283 92.42 129.256 89.9C128.23 87.3333 126.106 86.05 122.886 86.05C119.666 86.05 117.543 87.3333 116.516 89.9C115.49 92.42 114.976 96.0367 114.976 100.75C114.976 103.923 115.163 106.56 115.536 108.66C115.91 110.713 116.656 112.393 117.776 113.7C118.943 114.96 120.646 115.59 122.886 115.59C125.126 115.59 126.806 114.96 127.926 113.7C129.093 112.393 129.863 110.713 130.236 108.66C130.61 106.56 130.796 103.923 130.796 100.75Z" fill="white"/>
</g>
<defs>
<clipPath id="clip0_3_2">
<rect width="204" height="204" fill="white"/>
</clipPath>
</defs>
</svg>
